<svg width="480" height="85" viewBox="0 0 480 85" fill="none" xmlns="http://www.w3.org/2000/svg">
<g style="mix-blend-mode:overlay">
<path d="M42.8664 84.3897C38.1927 84.0766 33.672 83.044 27.5644 80.8946C24.2538 79.7295 19.3751 77.0282 16.2799 74.6465C12.772 71.9473 7.53325 66.2276 6.71122 64.1994C6.34575 63.2977 5.89821 62.5599 5.71669 62.5599C5.25519 62.5599 3.39692 58.2994 1.71222 53.3788C-0.238834 47.6801 -0.539149 40.9799 0.896928 35.1891C2.25725 29.7038 4.11754 25.1023 6.02086 22.5149C6.56822 21.7709 7.01606 20.9449 7.01606 20.6794C7.01606 20.4139 7.45872 19.7098 7.99976 19.1148C8.54079 18.5197 9.36966 17.5068 9.84168 16.8638C10.9694 15.3276 14.3135 11.8448 14.6608 11.8448C14.8106 11.8448 15.5618 11.2384 16.3303 10.4972C17.0987 9.75608 18.5419 8.78867 19.5374 8.34745C20.5328 7.90622 21.4793 7.33165 21.6406 7.07065C21.9421 6.58275 25.1853 4.99411 27.1272 4.38308C27.7284 4.19393 29.499 3.56283 31.062 2.98068C34.9081 1.54814 37.5486 0.991003 42.2106 0.628293C47.6206 0.207394 283.325 -0.0519033 283.331 0.363037C283.333 0.546297 283.417 2.46689 283.517 4.63103C283.722 9.05971 283.798 21.6452 283.777 47.8045L283.763 65.6203H278.298H272.833L272.824 60.4833C272.818 57.6579 272.816 45.5343 272.819 33.542C272.821 21.5497 272.705 11.2675 272.561 10.6927L272.298 9.64764L156.817 9.76253L41.3362 9.87743L38.0572 10.7998C36.2538 11.3071 34.1228 11.8464 33.3218 11.9983C31.1007 12.4194 23.7425 16.2551 22.0842 17.8563C21.2748 18.6378 20.4404 19.2772 20.2299 19.2772C19.7712 19.2772 17.9461 21.1609 17.9461 21.6343C17.9461 21.8177 17.361 22.5528 16.6458 23.2679C15.2202 24.6936 10.9509 32.8591 10.9509 34.1602C10.9509 34.6077 10.6558 36.1067 10.2951 37.4915C9.55407 40.3364 9.47366 44.3399 10.0989 47.258C10.3308 48.34 10.6387 49.914 10.7833 50.7556C11.1245 52.7429 14.9708 60.4855 16.3807 62.0234C18.9501 64.8262 20.5084 66.3435 21.8705 67.3691C23.5322 68.6202 29.145 71.5233 31.6831 72.4445C33.6504 73.1584 41.1819 74.7444 43.8841 75.0137C46.1357 75.2381 433.868 75.2418 435.69 75.0177C436.411 74.9289 437.984 74.7538 439.184 74.6287C443.654 74.1625 449.904 72.3321 452.085 70.85C452.686 70.4415 453.67 69.9573 454.271 69.7739C455.826 69.2998 457.604 68 461.048 64.8198C462.735 63.2614 464.563 60.7496 466.44 57.4078C471.428 48.5298 471.522 37.2252 466.682 28.125C461.327 18.0546 453.148 12.7613 439.177 10.3251C435.928 9.75849 428.892 9.65882 392.131 9.65882H348.906V16.2168V22.7748H351.311H353.715V31.0816V39.3884H351.311H348.906V41.7151C348.906 42.9948 349.213 44.9433 349.589 46.0452C350.256 48.0045 350.575 48.2671 353.387 49.1707C354.081 49.3935 354.152 50.2005 354.152 57.7929V66.1693L352.294 65.8761C348.008 65.1999 343.114 61.3648 340.783 56.8562C338.188 51.8352 337.991 49.4952 337.983 23.5197L337.976 0L387.27 0.15098C414.382 0.234022 437.056 0.440058 437.657 0.608822C438.259 0.777591 439.734 0.949233 440.936 0.990259C442.139 1.03128 443.473 1.23793 443.901 1.44948C444.329 1.66103 445.214 1.90697 445.868 1.99599C447.472 2.21425 455.327 4.98439 455.51 5.39614C455.59 5.57648 455.995 5.72404 456.411 5.72404C456.826 5.72404 457.589 6.11751 458.105 6.59843C458.621 7.07935 459.249 7.47284 459.499 7.47284C459.75 7.47284 459.955 7.66957 459.955 7.91003C459.955 8.15048 460.282 8.34723 460.683 8.34723C461.084 8.34723 461.723 8.64275 462.104 9.00394C462.485 9.36514 463.916 10.5471 465.285 11.6306C467.501 13.3844 473.071 19.6341 473.071 20.3664C473.071 20.5223 473.632 21.4723 474.318 22.4774C475.004 23.4826 476.009 25.4855 476.551 26.9282C479.605 35.0598 479.71 35.5047 479.938 41.3558C480.177 47.484 479.791 49.8276 477.597 55.5648C475.727 60.4545 475.137 61.6887 474.089 62.9074C473.529 63.5579 473.071 64.4247 473.071 64.8335C473.071 65.2424 472.814 65.7342 472.5 65.9265C472.186 66.1188 471.35 67.0522 470.642 68.0007C468.368 71.0463 462.633 75.8978 459.095 77.7679C453.854 80.5384 453.485 80.6855 446.62 82.744C443.299 83.7398 440.829 84.1463 436.346 84.4346C429.081 84.9018 49.8648 84.8585 42.8664 84.3897H42.8664Z" fill="white"/>
<path d="M28.9665 47.622C29.0655 34.0539 29.2189 30.0196 29.6411 29.879C29.9417 29.779 30.1876 29.3475 30.1876 28.9202C30.1876 28.4928 30.6795 27.4184 31.2806 26.5326C31.8818 25.6467 32.3736 24.8183 32.3736 24.6915C32.3736 24.224 33.532 23.3257 35.0859 22.5883C38.2437 21.0899 41.6031 21.0186 44.6287 22.386C45.8236 22.926 46.8012 23.6279 46.8012 23.9457C46.8012 24.2636 46.966 24.5236 47.1675 24.5236C47.872 24.5236 49.8239 29.2172 50.2747 31.9952C50.5265 33.5472 50.7309 41.5774 50.7327 49.9904L50.736 65.1831H46.364H41.992V49.9124C41.992 36.6128 41.9033 34.5529 41.305 33.9546C40.1376 32.7872 37.8207 33.2829 37.4448 34.7805C36.9704 36.6709 36.7358 43.107 37.12 43.6938C37.3322 44.0178 38.0232 44.3129 38.6556 44.3495L39.8054 44.4162L39.8057 49.5532L39.806 54.6903H38.4944C37.2648 54.6903 37.1794 54.7996 37.1282 56.4391C37.0981 57.401 37.0243 58.3847 36.9642 58.6251C36.9041 58.8656 36.8303 60.4395 36.8003 62.1227L36.7456 65.1831H32.792H28.8384L28.9665 47.622Z" fill="white"/>
<path d="M77.8424 65.4755C73.6609 63.5206 69.7327 58.8932 67.9635 53.8383C67.0431 51.2086 66.7637 49.4547 66.59 45.2172C66.3926 40.3984 66.4804 39.5194 67.5233 35.8838C68.6556 31.9362 70.5491 28.0212 71.3259 28.0212C71.5435 28.0212 71.7216 27.7378 71.7216 27.3914C71.7216 26.5266 75.771 23.1829 77.7527 22.4114C82.1468 20.7007 87.6565 21.6302 90.7167 24.5985C91.6659 25.5191 92.6036 26.2724 92.8005 26.2724C92.9974 26.2724 93.4996 27.0102 93.9165 27.9119C94.3334 28.8136 94.791 29.6498 94.9332 29.77C95.0755 29.8902 95.5521 30.9723 95.9922 32.1746C96.4324 33.3769 96.9359 34.5573 97.1111 34.7978C97.2864 35.0383 97.4984 36.2168 97.5823 37.4168L97.7349 39.5987L94.6745 39.9455C90.0769 40.4666 89.1491 40.2816 88.59 38.7326C88.3296 38.0112 87.5884 36.6091 86.9428 35.6168C85.9403 34.0759 85.4845 33.77 83.8192 33.5202C80.3403 32.9985 78.4102 33.9537 76.3942 37.1949C75.5392 38.5695 75.4398 39.3164 75.4565 44.2377C75.4741 49.4151 75.5392 49.8224 76.5495 51.0819C79.8019 55.1365 84.7991 55.2926 87.3643 51.4198C88.051 50.3831 88.8541 48.4571 89.1488 47.1399L89.6848 44.745L93.0541 44.7325C98.1159 44.7137 97.9472 44.5862 97.6683 48.2216C97.297 53.0625 94.6836 59.169 91.7112 62.1414C88.8001 65.0525 86.3571 66.0639 82.3382 66.022C80.4666 66.0024 78.4435 65.7565 77.8424 65.4755V65.4755Z" fill="white"/>
<path d="M290.664 16.5664C289.458 15.8675 288.866 15.117 288.368 13.6568C287.572 11.3205 287.554 10.8101 288.164 7.96495C288.689 5.51672 289.48 4.4252 291.472 3.39978C292.492 2.87427 293.192 2.79579 294.223 3.09137C295.614 3.49029 297.275 5.06771 297.302 6.01552C297.31 6.29605 297.523 6.59432 297.775 6.67832C298.027 6.76233 298.346 7.92558 298.484 9.26333C298.806 12.3874 297.603 15.3515 295.488 16.6407C293.654 17.7589 292.695 17.7441 290.664 16.5664V16.5664Z" fill="white"/>
<path d="M120.619 65.6312C118.228 64.9091 111.944 59.5756 111.944 58.2687C111.944 58.0444 111.451 56.9797 110.849 55.9027C109.053 52.6891 108.064 47.9912 108.241 43.514C108.375 40.1174 108.657 37.421 108.88 37.421C108.917 37.421 109.038 36.9323 109.147 36.3349C109.364 35.1518 111.878 29.466 112.594 28.541C114.374 26.2392 117.719 23.2558 119.289 22.5695C121.556 21.5786 126.101 21.4663 129.169 22.3252C133.205 23.4551 136.615 27.6991 138.942 34.4879C140.077 37.7964 140.101 38.1088 140.267 51.5206L140.437 65.1831H134.966H129.495L129.354 53.4881C129.22 42.3336 129.168 41.7078 128.228 39.9495C127.122 37.8792 126.147 37.2024 124.273 37.2024C121.504 37.2024 119.376 40.1251 119.376 43.9288C119.376 46.8303 119.818 48.0976 121.373 49.6524C122.366 50.6452 122.86 50.8099 124.463 50.6824L126.371 50.5307V58.2941V66.0575L124.076 66.02C122.814 65.9993 121.258 65.8244 120.619 65.6313V65.6312Z" fill="white"/>
<path d="M57.0457 65.0474C55.2044 63.0978 54.4999 61.4922 54.4759 59.1902C54.4491 56.6163 55.7768 53.7076 57.6029 52.3397C58.5509 51.6296 58.9235 51.5868 60.3743 52.0214C61.3734 52.3208 62.1612 52.8729 62.3248 53.3884C62.4758 53.864 62.756 54.2531 62.9476 54.2531C63.1392 54.2531 63.618 55.0963 64.0116 56.1269C65.2334 59.3263 64.4669 62.4629 61.8251 65.0738C60.5256 66.3581 58.2718 66.3456 57.0457 65.0474V65.0474Z" fill="white"/>
<path d="M144.386 48.6789L144.515 32.1746L145.746 29.6684C148.529 23.9984 152.14 21.2965 156.283 21.7821C159.263 22.1314 161.08 22.9405 162.172 24.4033C163.562 26.2669 164.506 27.1468 165.116 27.1468C165.421 27.1468 166.616 26.1997 167.772 25.0421C168.927 23.8845 170.463 22.7198 171.184 22.4539C175.082 21.0172 179.045 21.8248 181.286 24.512C181.982 25.3472 182.896 26.3801 183.317 26.8073C183.737 27.2345 184.082 27.9472 184.082 28.3912C184.082 28.8352 184.388 29.8123 184.762 30.5625C185.769 32.5801 185.967 35.5337 186.137 51.0834L186.291 65.1831H180.837H175.384L175.251 51.395C175.139 39.7138 175.019 37.5435 174.463 37.1927C173.532 36.6044 172.577 36.6685 171.596 37.3852C170.792 37.9722 170.74 38.7301 170.615 51.5942L170.482 65.1831H165.064H159.645L159.513 51.6449C159.394 39.4895 159.303 38.0293 158.622 37.3491C158.021 36.7491 157.612 36.68 156.654 37.0166L155.445 37.4417L155.33 51.3124L155.214 65.1831H149.736H144.257L144.386 48.6789Z" fill="white"/>
<path d="M394.192 50.1726C394.25 38.4981 394.325 35.2516 394.539 35.1803C394.689 35.1302 394.812 34.7532 394.812 34.3424C394.812 33.9316 394.91 33.5955 395.03 33.5955C395.151 33.5955 395.249 33.202 395.249 32.7211C395.249 32.2402 395.347 31.8467 395.468 31.8467C395.588 31.8467 395.686 31.6991 395.686 31.5188C395.686 31.3384 395.785 31.1909 395.905 31.1909C396.025 31.1909 396.123 30.8536 396.123 30.4414C396.123 30.0292 396.271 29.5444 396.451 29.364C396.632 29.1837 396.779 28.8921 396.779 28.716C396.779 28.5399 396.922 28.341 397.097 28.274C397.404 28.1562 398.309 26.4254 398.309 25.9565C398.309 25.8297 398.506 25.7259 398.747 25.7259C398.99 25.7259 399.184 25.5801 399.184 25.398C399.184 24.9743 399.962 24.1957 400.386 24.1957C400.568 24.1957 400.714 24.0014 400.714 23.7585C400.714 23.467 400.86 23.3213 401.151 23.3213C401.392 23.3213 401.588 23.2274 401.588 23.1126C401.588 22.9978 401.929 22.8399 402.346 22.7618C402.816 22.6737 403.154 22.4621 403.235 22.2054C403.335 21.8913 403.575 21.7911 404.226 21.7911C404.699 21.7911 405.086 21.6927 405.086 21.5725C405.086 21.4523 405.234 21.3539 405.414 21.3539C405.594 21.3539 405.742 21.4523 405.742 21.5725C405.742 21.6927 405.939 21.7911 406.179 21.7911C406.42 21.7911 406.616 21.6927 406.616 21.5725C406.616 21.4523 406.961 21.3539 407.381 21.3539C407.802 21.3539 408.146 21.4523 408.146 21.5725C408.146 21.8871 408.745 21.8423 408.876 21.5178C408.964 21.2992 408.99 21.2992 409.004 21.5178C409.024 21.8399 409.677 21.8929 409.677 21.5725C409.677 21.4523 409.775 21.3539 409.895 21.3539C410.015 21.3539 410.114 21.5506 410.114 21.7911C410.114 22.0316 410.212 22.2283 410.332 22.2283C410.474 22.2283 410.551 24.9608 410.551 29.9886C410.551 37.6032 410.543 37.7489 410.114 37.7489C409.873 37.7489 409.677 37.6505 409.677 37.5303C409.677 37.41 409.234 37.3117 408.693 37.3117C408.152 37.3117 407.709 37.41 407.709 37.5303C407.709 37.6505 407.608 37.7489 407.483 37.7489C407.087 37.7489 405.742 39.2484 405.742 39.6908C405.742 39.9252 405.619 40.158 405.469 40.208C405.255 40.279 405.18 43.0205 405.126 52.6864L405.057 65.0738H399.588H394.119L394.192 50.1726Z" fill="white"/>
<path d="M370.766 65.7296C370.766 65.6094 370.471 65.511 370.11 65.511C369.749 65.511 369.454 65.4127 369.454 65.2924C369.454 65.1722 369.307 65.0738 369.126 65.0738C368.946 65.0738 368.798 64.9864 368.798 64.8796C368.798 64.7727 368.454 64.6207 368.033 64.5418C367.613 64.4628 367.268 64.3043 367.268 64.1895C367.268 64.0747 367.122 63.9808 366.944 63.9808C366.536 63.9808 362.103 59.5542 361.914 58.9574C361.837 58.7145 361.682 58.5158 361.57 58.5158C361.458 58.5158 361.366 58.3191 361.366 58.0786C361.366 57.8382 361.268 57.6414 361.147 57.6414C361.027 57.6414 360.929 57.4939 360.929 57.3136C360.929 57.1332 360.83 56.9856 360.71 56.9856C360.59 56.9856 360.492 56.7889 360.492 56.5484C360.492 56.308 360.404 56.1112 360.297 56.1112C360.191 56.1112 360.039 55.767 359.96 55.3462C359.881 54.9253 359.722 54.581 359.607 54.581C359.493 54.581 359.399 54.3843 359.399 54.1439C359.399 53.9034 359.3 53.7067 359.18 53.7067C359.06 53.7067 358.961 53.4689 358.961 53.1784C358.961 52.8878 358.862 52.6168 358.74 52.5761C358.618 52.5355 358.456 51.8387 358.38 51.0277C358.304 50.2168 358.158 49.5532 358.055 49.5532C357.953 49.5532 357.868 49.0122 357.868 48.351C357.868 47.6897 357.77 47.1487 357.65 47.1487C357.517 47.1487 357.431 46.165 357.431 44.6348C357.431 43.1046 357.517 42.1209 357.65 42.1209C357.77 42.1209 357.868 41.9241 357.868 41.6837C357.868 41.4432 357.77 41.2465 357.65 41.2465C357.53 41.2465 357.431 41.0005 357.431 40.7C357.431 40.3994 357.53 40.1535 357.65 40.1535C357.773 40.1535 357.868 39.5341 357.868 38.7326C357.868 37.9511 357.957 37.3117 358.065 37.3117C358.173 37.3117 358.329 36.6387 358.411 35.8163C358.523 34.7105 358.671 34.2423 358.98 34.0192C359.21 33.8533 359.399 33.4933 359.399 33.2193C359.399 32.9453 359.486 32.7211 359.592 32.7211C359.699 32.7211 359.85 32.2979 359.927 31.7807C360.012 31.2186 360.241 30.7155 360.499 30.5301C360.735 30.3595 360.929 30.0941 360.929 29.9403C360.929 29.7865 361.027 29.6607 361.147 29.6607C361.268 29.6607 361.366 29.4639 361.366 29.2235C361.366 28.983 361.464 28.7863 361.585 28.7863C361.705 28.7863 361.803 28.6387 361.803 28.4584C361.803 28.2781 361.951 28.1305 362.131 28.1305C362.313 28.1305 362.459 27.9362 362.459 27.6933C362.459 27.4528 362.557 27.2561 362.678 27.2561C362.798 27.2561 362.896 27.0594 362.896 26.8189C362.896 26.5274 363.042 26.3817 363.333 26.3817C363.576 26.3817 363.771 26.236 363.771 26.0538C363.771 25.8734 363.918 25.7259 364.099 25.7259C364.281 25.7259 364.426 25.5316 364.426 25.2887C364.426 25.0082 364.572 24.8515 364.833 24.8515C365.057 24.8515 365.424 24.6056 365.65 24.305C365.876 24.0044 366.234 23.7585 366.446 23.7585C366.658 23.7585 366.831 23.6601 366.831 23.5399C366.831 23.4197 366.936 23.3213 367.065 23.3213C367.194 23.3213 367.447 23.1737 367.627 22.9934C367.808 22.813 368.293 22.6655 368.705 22.6655C369.309 22.6655 369.454 22.5805 369.454 22.2283C369.454 21.9878 369.553 21.7911 369.673 21.7911C369.793 21.7911 369.891 21.8895 369.891 22.0097C369.891 22.1299 370.088 22.2283 370.329 22.2283C370.569 22.2283 370.766 22.1299 370.766 22.0097C370.766 21.8895 370.913 21.7911 371.094 21.7911C371.274 21.7911 371.422 21.6927 371.422 21.5725C371.422 21.4523 371.618 21.3539 371.859 21.3539C372.099 21.3539 372.296 21.4523 372.296 21.5725C372.296 21.8862 372.891 21.8426 373.043 21.5178C373.145 21.2992 373.196 21.2992 373.298 21.5178C373.449 21.842 374.263 21.888 374.263 21.5725C374.263 21.4523 374.411 21.3539 374.591 21.3539C374.772 21.3539 374.919 21.4523 374.919 21.5725C374.919 21.6927 375.46 21.7911 376.122 21.7911C376.783 21.7911 377.324 21.8895 377.324 22.0097C377.324 22.1299 377.521 22.2283 377.761 22.2283C378.002 22.2283 378.198 22.3141 378.198 22.419C378.198 22.5238 378.592 22.6725 379.072 22.7494C379.597 22.8333 380.055 23.0628 380.218 23.3238C380.367 23.5629 380.662 23.7585 380.874 23.7585C381.113 23.7585 381.259 23.9241 381.259 24.1957C381.259 24.4386 381.404 24.6329 381.587 24.6329C381.767 24.6329 381.914 24.7805 381.914 24.9608C381.914 25.143 382.109 25.2887 382.352 25.2887C382.643 25.2887 382.789 25.4344 382.789 25.7259C382.789 25.9991 382.935 26.1631 383.177 26.1631C383.607 26.1631 384.319 26.8849 384.319 27.3196C384.319 27.4721 384.512 27.736 384.748 27.9061C384.984 28.0762 385.241 28.5034 385.318 28.8553C385.398 29.2219 385.635 29.5414 385.872 29.6034C386.1 29.663 386.286 29.8478 386.286 30.0141C386.286 30.1804 386.385 30.3165 386.505 30.3165C386.625 30.3165 386.724 30.505 386.724 30.7355C386.724 30.9659 386.828 31.1894 386.956 31.232C387.084 31.2747 387.245 31.7255 387.313 32.2339C387.381 32.7423 387.522 33.1583 387.627 33.1583C387.731 33.1583 387.817 33.3058 387.817 33.4862C387.817 33.6665 387.915 33.8141 388.035 33.8141C388.155 33.8141 388.254 34.1584 388.254 34.5792C388.254 35 388.352 35.3443 388.472 35.3443C388.593 35.3443 388.691 35.7295 388.691 36.2004C388.691 36.6713 388.796 37.0918 388.925 37.1347C389.064 37.1809 389.211 38.2603 389.286 39.7835C389.356 41.1974 389.496 42.4059 389.598 42.4691C389.84 42.6186 389.841 44.7441 389.599 44.7441C389.497 44.7441 389.352 46.0468 389.276 47.639C389.197 49.2887 389.041 50.5659 388.914 50.6083C388.791 50.6492 388.691 51.0188 388.691 51.4296C388.691 51.8404 388.593 52.1765 388.472 52.1765C388.352 52.1765 388.254 52.4716 388.254 52.8322C388.254 53.1929 388.155 53.488 388.035 53.488C387.915 53.488 387.816 53.6356 387.816 53.816C387.816 53.9963 387.731 54.1439 387.627 54.1439C387.522 54.1439 387.381 54.5598 387.313 55.0682C387.245 55.5766 387.084 56.0274 386.956 56.0701C386.828 56.1128 386.724 56.3296 386.724 56.5519C386.724 56.7743 386.527 57.0186 386.286 57.095C386.046 57.1713 385.849 57.4238 385.849 57.6562C385.849 57.8885 385.751 58.0786 385.631 58.0786C385.51 58.0786 385.412 58.2616 385.412 58.4852C385.412 58.7088 385.166 59.0765 384.865 59.3022C384.565 59.5279 384.319 59.834 384.319 59.9824C384.319 60.3376 381.118 63.5436 380.764 63.5436C380.613 63.5436 380.369 63.7355 380.223 63.97C380.077 64.2045 379.61 64.4614 379.187 64.5408C378.763 64.6203 378.417 64.7727 378.417 64.8796C378.417 64.9864 378.269 65.0738 378.089 65.0738C377.909 65.0738 377.761 65.1722 377.761 65.2924C377.761 65.4127 377.417 65.511 376.996 65.511C376.575 65.511 376.231 65.6094 376.231 65.7296C376.231 65.8637 375.174 65.9482 373.498 65.9482C371.822 65.9482 370.766 65.8637 370.766 65.7296H370.766ZM372.952 50.8649C372.952 50.7446 373.395 50.6463 373.936 50.6463C374.477 50.6463 374.919 50.5479 374.919 50.4277C374.919 50.3074 375.116 50.2091 375.356 50.2091C375.597 50.2091 375.794 50.1107 375.794 49.9905C375.794 49.8702 375.941 49.7718 376.122 49.7718C376.302 49.7718 376.449 49.6638 376.449 49.5317C376.449 49.3995 376.745 49.0158 377.105 48.6789C377.466 48.3419 377.761 47.868 377.761 47.6257C377.761 47.3833 377.884 47.1441 378.034 47.094C378.237 47.0264 378.308 46.1382 378.308 43.6511C378.308 41.1639 378.237 40.2757 378.034 40.2081C377.884 40.158 377.761 39.9285 377.761 39.698C377.761 39.4676 377.663 39.2791 377.542 39.2791C377.422 39.2791 377.324 39.184 377.324 39.0679C377.324 38.6789 375.707 37.0931 375.311 37.0931C375.095 37.0931 374.919 36.9947 374.919 36.8745C374.919 36.753 374.336 36.6559 373.608 36.6559C372.886 36.6559 372.296 36.7419 372.296 36.8471C372.296 36.9523 371.998 37.0979 371.635 37.1707C370.891 37.3194 369.891 38.2093 369.891 38.7226C369.891 38.9085 369.794 39.0605 369.675 39.0605C369.557 39.0605 369.396 39.4561 369.319 39.9397C369.242 40.4233 369.093 40.8718 368.988 40.9363C368.74 41.0896 368.74 46.2743 368.988 46.2743C369.093 46.2743 369.232 46.6733 369.297 47.1611C369.366 47.672 369.609 48.2156 369.872 48.4437C370.123 48.6613 370.329 48.9982 370.329 49.1922C370.329 49.3862 370.575 49.6067 370.875 49.6821C371.176 49.7575 371.422 49.907 371.422 50.0142C371.422 50.1214 371.618 50.2091 371.859 50.2091C372.15 50.2091 372.296 50.3548 372.296 50.6463C372.296 50.8891 372.442 51.0834 372.624 51.0834C372.804 51.0834 372.952 50.9851 372.952 50.8649V50.8649Z" fill="white"/>
<path d="M316.498 66.0125C315.807 65.9652 315.242 65.8329 315.242 65.7187C315.242 65.6045 314.897 65.511 314.476 65.511C314.056 65.511 313.711 65.4359 313.711 65.344C313.711 65.141 312.089 64.418 311.633 64.418C311.454 64.418 311.307 64.3196 311.307 64.1994C311.307 64.0792 311.209 63.9808 311.089 63.9808C310.75 63.9808 306.716 59.8564 306.716 59.5098C306.716 59.34 306.519 59.1386 306.279 59.0623C306.039 58.986 305.842 58.7405 305.842 58.5167C305.842 58.2929 305.694 57.9623 305.514 57.782C305.334 57.6016 305.186 57.3487 305.186 57.2199C305.186 57.091 305.088 56.9856 304.967 56.9856C304.847 56.9856 304.749 56.7971 304.749 56.5666C304.749 56.3362 304.644 56.1128 304.516 56.0701C304.388 56.0274 304.228 55.5766 304.159 55.0682C304.091 54.5598 303.95 54.1439 303.846 54.1439C303.741 54.1439 303.656 53.8979 303.656 53.5973C303.656 53.2968 303.557 53.0508 303.437 53.0508C303.317 53.0508 303.219 52.7557 303.219 52.3951C303.219 52.0344 303.12 51.7392 303 51.7392C302.88 51.7392 302.781 51.4031 302.781 50.9924C302.781 50.5816 302.658 50.2045 302.508 50.1543C302.298 50.0842 302.235 48.6082 302.235 43.7603C302.235 38.9123 302.298 37.4364 302.508 37.3663C302.658 37.3162 302.781 36.9391 302.781 36.5283C302.781 35.9272 302.867 35.7815 303.219 35.7815C303.461 35.7815 303.656 35.6357 303.656 35.4536C303.656 35.2732 303.557 35.1257 303.437 35.1257C303.317 35.1257 303.219 34.9289 303.219 34.6885C303.219 34.448 303.293 34.2513 303.384 34.2513C303.588 34.2513 304.01 33.2741 304.192 32.381C304.267 32.0136 304.521 31.5738 304.757 31.4037C304.993 31.2336 305.186 30.9193 305.186 30.7054C305.186 30.4915 305.284 30.3165 305.405 30.3165C305.525 30.3165 305.623 30.1278 305.623 29.8972C305.623 29.1887 305.869 28.7863 306.302 28.7863C306.587 28.7863 306.716 28.6312 306.716 28.288C306.716 28.014 306.913 27.648 307.153 27.4747C307.394 27.3014 307.591 26.9845 307.591 26.7706C307.591 26.5567 307.723 26.3817 307.885 26.3817C308.319 26.3817 309.121 25.6204 309.121 25.2084C309.121 25.0121 309.265 24.8515 309.441 24.8515C309.618 24.8515 310.106 24.5072 310.527 24.0864C310.948 23.6656 311.394 23.3213 311.518 23.3213C311.642 23.3213 311.744 23.2339 311.744 23.127C311.744 23.0202 312.088 22.8682 312.509 22.7892C312.93 22.7103 313.274 22.5518 313.274 22.437C313.274 22.3222 313.569 22.2283 313.93 22.2283C314.291 22.2283 314.586 22.1299 314.586 22.0097C314.586 21.8767 315.563 21.7911 317.081 21.7911C318.864 21.7911 319.614 21.713 319.705 21.5178C319.807 21.2992 319.858 21.2992 319.96 21.5178C320.036 21.6815 320.513 21.7911 321.15 21.7911C321.935 21.7911 322.286 21.8966 322.498 22.1962C322.673 22.4448 323.2 22.6634 323.861 22.762C324.642 22.8784 325.103 23.0985 325.534 23.5592C325.861 23.9093 326.214 24.1957 326.318 24.1957C326.637 24.1957 328.576 26.253 328.576 26.5903C328.576 26.716 328.754 26.8189 328.971 26.8189C329.351 26.8189 330.106 28.1238 330.106 28.7797C330.106 28.9357 330.363 29.284 330.677 29.5537C331.058 29.8813 331.26 30.2883 331.285 30.7797C331.31 31.2826 331.441 31.5382 331.698 31.5877C331.966 31.6394 332.074 31.8746 332.074 32.4092C332.074 32.8212 332.172 33.1583 332.292 33.1583C332.413 33.1583 332.511 33.396 332.511 33.6866C332.511 33.9771 332.615 34.2496 332.743 34.292C332.87 34.3345 333.032 35.1297 333.102 36.0591C333.172 36.9885 333.314 37.7489 333.417 37.7489C333.52 37.7489 333.604 38.4375 333.604 39.2791C333.604 40.1535 333.698 40.8093 333.823 40.8093C333.966 40.8093 334.041 44.9991 334.041 52.9415V65.0738H328.576H323.111V54.3624C323.111 47.3672 323.035 43.6511 322.893 43.6511C322.772 43.6511 322.674 43.11 322.674 42.4488C322.674 41.7875 322.576 41.2465 322.455 41.2465C322.335 41.2465 322.237 41.04 322.237 40.7877C322.237 39.7555 321.214 38.2257 320.096 37.5849C319.528 37.2591 316.553 37.2133 316.553 37.5303C316.553 37.6505 316.393 37.7489 316.196 37.7489C315.845 37.7489 315.023 38.5277 315.023 38.8606C315.023 38.9543 314.826 39.0934 314.586 39.1698C314.345 39.2461 314.149 39.4986 314.149 39.731C314.149 39.9633 314.05 40.1535 313.93 40.1535C313.81 40.1535 313.711 40.3797 313.711 40.6562C313.711 40.9328 313.593 41.2769 313.449 41.4209C313.078 41.7923 313.128 46.9234 313.506 47.1566C313.656 47.2495 313.77 47.6301 313.76 48.0022C313.745 48.532 313.832 48.6788 314.163 48.6788C314.396 48.6788 314.586 48.8264 314.586 49.0068C314.586 49.518 315.402 50.209 316.007 50.209C316.307 50.209 316.553 50.3074 316.553 50.4276C316.553 50.5526 317.209 50.6463 318.083 50.6463C318.958 50.6463 319.614 50.5526 319.614 50.4276C319.614 50.3074 319.753 50.209 319.923 50.209C320.094 50.209 320.283 50.0861 320.343 49.9358C320.404 49.7855 320.461 53.3268 320.471 57.8054L320.488 65.9482H319.75C319.344 65.9482 318.73 65.9821 318.384 66.0234C318.038 66.0648 317.19 66.0599 316.499 66.0125H316.498Z" fill="white"/>
<path d="M287.698 43.8697C287.698 25.1673 287.737 22.6655 288.026 22.6655C288.206 22.6655 288.354 22.5671 288.354 22.4469C288.354 22.1316 296.806 22.152 297.001 22.4678C297.083 22.5995 297.482 22.6685 297.889 22.621L298.628 22.5347V24.6768C298.628 25.9591 298.54 26.8189 298.409 26.8189C298.289 26.8189 298.191 27.0156 298.191 27.2561C298.191 27.4966 298.289 27.6933 298.409 27.6933C298.541 27.6933 298.628 28.6041 298.628 29.9886C298.628 31.3731 298.541 32.2839 298.409 32.2839C298.289 32.2839 298.191 32.4806 298.191 32.7211C298.191 32.9616 298.289 33.1583 298.409 33.1583C298.552 33.1583 298.628 37.2024 298.628 44.8534C298.628 52.5044 298.552 56.5485 298.409 56.5485C298.289 56.5485 298.191 56.696 298.191 56.8764C298.191 57.0567 298.289 57.2043 298.409 57.2043C298.542 57.2043 298.628 58.1515 298.628 59.6088C298.628 61.0662 298.542 62.0135 298.409 62.0135C298.289 62.0135 298.191 62.161 298.191 62.3413C298.191 62.5217 298.289 62.6692 298.409 62.6692C298.53 62.6692 298.628 63.2103 298.628 63.8716V65.0738H293.163H287.698V43.8697Z" fill="white"/>
<path d="M251.574 66.0029C250.763 65.9619 250.099 65.8344 250.099 65.7196C250.099 65.6049 249.853 65.511 249.552 65.511C249.252 65.511 249.006 65.4127 249.006 65.2924C249.006 65.1722 248.76 65.0738 248.459 65.0738C248.159 65.0738 247.913 64.9878 247.913 64.8826C247.913 64.7774 247.609 64.6304 247.237 64.5561C246.865 64.4817 246.284 64.1251 245.947 63.7636C245.609 63.4022 245.227 63.1064 245.097 63.1064C244.784 63.1064 242.011 60.3261 242.011 60.013C242.011 59.879 241.828 59.6103 241.605 59.4159C241.381 59.2214 241.129 58.841 241.043 58.5705C240.958 58.3 240.796 58.0786 240.684 58.0786C240.572 58.0786 240.48 57.8819 240.48 57.6414C240.48 57.401 240.382 57.2042 240.262 57.2042C240.142 57.2042 240.043 57.0567 240.043 56.8763C240.043 56.696 239.945 56.5484 239.825 56.5484C239.704 56.5484 239.606 56.3517 239.606 56.1112C239.606 55.8708 239.509 55.674 239.39 55.674C239.271 55.674 239.111 55.2784 239.033 54.7948C238.956 54.3112 238.807 53.8627 238.703 53.7982C238.598 53.7336 238.513 53.4407 238.513 53.1472C238.513 52.8538 238.415 52.6136 238.294 52.6136C238.174 52.6136 238.076 52.2694 238.076 51.8485C238.076 51.4277 237.977 51.0834 237.857 51.0834C237.737 51.0834 237.639 50.7473 237.639 50.3366C237.639 49.9258 237.521 49.5503 237.376 49.5023C237.008 49.3794 237.017 38.357 237.385 38.234C237.525 38.1876 237.639 37.8135 237.639 37.4028C237.639 36.992 237.737 36.6559 237.857 36.6559C237.977 36.6559 238.076 36.3116 238.076 35.8908C238.076 35.47 238.174 35.1257 238.294 35.1257C238.415 35.1257 238.513 34.8411 238.513 34.4933C238.513 34.1328 238.654 33.8067 238.841 33.735C239.057 33.652 239.169 33.3096 239.169 32.7279C239.169 32.2432 239.267 31.8467 239.387 31.8467C239.508 31.8467 239.606 31.6991 239.606 31.5188C239.606 31.3366 239.8 31.1909 240.043 31.1909C240.371 31.1909 240.48 31.0451 240.48 30.6085C240.48 29.7774 241.148 28.3746 241.615 28.2267C241.832 28.1576 242.011 27.9531 242.011 27.7722C242.011 27.3919 242.527 26.8189 242.869 26.8189C242.998 26.8189 243.104 26.7175 243.104 26.5936C243.104 26.2336 245.671 23.7585 246.044 23.7585C246.23 23.7585 246.383 23.6601 246.383 23.5399C246.383 23.4197 246.53 23.3213 246.711 23.3213C246.891 23.3213 247.038 23.2248 247.038 23.1069C247.038 22.9889 247.284 22.8307 247.585 22.7553C247.885 22.6798 248.131 22.5304 248.131 22.4232C248.131 22.316 248.32 22.2283 248.55 22.2283C248.781 22.2283 249.027 22.1053 249.097 21.9551C249.199 21.7365 249.25 21.7365 249.352 21.9551C249.503 22.2799 250.099 22.3234 250.099 22.0097C250.099 21.8895 250.423 21.7911 250.82 21.7911C251.217 21.7911 251.66 21.673 251.804 21.5288C252.008 21.3247 252.066 21.3247 252.066 21.5288C252.066 21.6828 252.382 21.7911 252.831 21.7911C253.252 21.7911 253.596 21.6927 253.596 21.5725C253.596 21.4523 254.039 21.3539 254.58 21.3539C255.121 21.3539 255.564 21.4523 255.564 21.5725C255.564 21.6927 255.957 21.7911 256.438 21.7911C256.919 21.7911 257.313 21.8895 257.313 22.0097C257.313 22.1299 257.55 22.2283 257.841 22.2283C258.131 22.2283 258.403 22.329 258.444 22.4521C258.485 22.5751 258.911 22.7384 259.391 22.815C260.177 22.9404 261.029 23.554 261.029 23.9953C261.029 24.0888 261.25 24.1967 261.521 24.2351C261.791 24.2735 262.11 24.5263 262.228 24.7968C262.347 25.0674 262.524 25.2887 262.621 25.2887C262.827 25.2887 263.871 26.2977 263.871 26.4967C263.871 26.5708 263.994 26.7686 264.144 26.9362C264.793 27.6596 264.964 27.9068 264.964 28.1213C264.964 28.2466 265.062 28.3491 265.182 28.3491C265.302 28.3491 265.401 28.5097 265.401 28.706C265.401 28.9023 265.606 29.241 265.857 29.4587C266.12 29.6867 266.364 30.2303 266.432 30.7413C266.498 31.229 266.637 31.6281 266.741 31.6281C266.846 31.6281 266.931 31.7756 266.931 31.956C266.931 32.1363 267.029 32.2839 267.15 32.2839C267.27 32.2839 267.368 32.6282 267.368 33.049C267.368 33.4698 267.457 33.8141 267.565 33.8141C267.674 33.8141 267.831 34.4045 267.915 35.1261C267.998 35.8477 268.156 36.4929 268.264 36.5599C268.372 36.6269 268.461 37.2661 268.461 37.9804C268.461 38.7004 268.559 39.2791 268.68 39.2791C268.823 39.2791 268.898 43.7239 268.898 52.1765V65.0738H263.433H257.968V53.5973C257.968 46.0921 257.893 42.1209 257.75 42.1209C257.63 42.1209 257.531 41.8807 257.531 41.5873C257.531 41.2938 257.446 41.0011 257.342 40.9368C257.238 40.8725 257.097 40.4767 257.029 40.0572C256.906 39.3001 255.945 38.1562 254.952 37.5849C254.385 37.2591 251.41 37.2132 251.41 37.5303C251.41 37.6505 251.235 37.7489 251.021 37.7489C250.808 37.7489 250.488 37.9577 250.311 38.2129C250.134 38.4681 249.867 38.8053 249.716 38.9623C249.566 39.1194 249.443 39.3532 249.443 39.4821C249.443 39.6109 249.345 39.7163 249.224 39.7163C249.104 39.7163 249.006 39.913 249.006 40.1535C249.006 40.3939 248.907 40.5907 248.787 40.5907C248.667 40.5907 248.569 40.8308 248.569 41.1243C248.569 41.4177 248.464 41.7225 248.336 41.8015C248.189 41.8923 248.123 42.8405 248.156 44.3793C248.216 47.2099 248.493 47.9372 250.143 49.6064L251.171 50.6463H253.039C254.139 50.6463 254.908 50.5563 254.908 50.4277C254.908 50.3074 255.006 50.209 255.127 50.209C255.268 50.209 255.345 52.978 255.345 58.0786V65.9482H254.489C254.018 65.9482 253.501 65.9773 253.341 66.0129C253.181 66.0485 252.386 66.044 251.574 66.0029H251.574Z" fill="white"/>
<path d="M191.296 50.8649C191.296 41.5379 191.371 36.6559 191.514 36.6559C191.634 36.6559 191.733 36.1148 191.733 35.4536C191.733 34.7923 191.82 34.2513 191.926 34.2513C192.032 34.2513 192.124 33.8498 192.131 33.3591C192.147 32.1855 192.373 31.1909 192.625 31.1909C192.735 31.1909 192.826 30.8958 192.826 30.5351C192.826 30.1744 192.924 29.8793 193.044 29.8793C193.165 29.8793 193.263 29.7317 193.263 29.5514C193.263 29.371 193.35 29.2235 193.457 29.2235C193.563 29.2235 193.717 28.7808 193.798 28.2398C193.915 27.4629 194.035 27.2561 194.369 27.2561C194.647 27.2561 194.793 27.1058 194.793 26.8189C194.793 26.5784 194.892 26.3817 195.012 26.3817C195.132 26.3817 195.23 26.2341 195.23 26.0538C195.23 25.8734 195.378 25.7259 195.558 25.7259C195.74 25.7259 195.886 25.5316 195.886 25.2887C195.886 25.0482 195.971 24.8515 196.074 24.8515C196.177 24.8515 196.595 24.5082 197.003 24.0887C197.411 23.6692 197.867 23.3249 198.017 23.3236C198.168 23.3224 198.291 23.2248 198.291 23.1069C198.291 22.9889 198.537 22.8307 198.837 22.7553C199.138 22.6798 199.384 22.5304 199.384 22.4232C199.384 22.316 199.679 22.2283 200.04 22.2283C200.4 22.2283 200.695 22.1299 200.695 22.0097C200.695 21.8895 200.843 21.7911 201.023 21.7911C201.204 21.7911 201.351 21.6927 201.351 21.5725C201.351 21.2554 202.172 21.3037 202.281 21.6272C202.352 21.8385 202.513 21.8261 202.991 21.5725C203.469 21.3189 203.629 21.3065 203.7 21.5178C203.819 21.8722 204.561 21.8722 204.704 21.5178C204.792 21.2992 204.818 21.2992 204.831 21.5178C204.841 21.6719 205.135 21.7911 205.505 21.7911C205.865 21.7911 206.16 21.8895 206.16 22.0097C206.16 22.1299 206.406 22.2283 206.707 22.2283C207.047 22.2283 207.253 22.3522 207.253 22.5562C207.253 22.7748 207.472 22.8841 207.909 22.8841C208.419 22.8841 208.565 22.9813 208.565 23.3213C208.565 23.5618 208.663 23.7585 208.782 23.7585C209.103 23.7585 210.095 24.6715 210.095 24.9668C210.095 25.3684 210.875 26.1631 211.268 26.1631C211.465 26.1631 211.625 26.3107 211.625 26.491C211.625 26.6713 211.724 26.8189 211.844 26.8189C211.964 26.8189 212.062 27.0156 212.062 27.2561C212.062 27.499 212.208 27.6933 212.39 27.6933C212.571 27.6933 212.718 27.5949 212.718 27.4747C212.718 27.3545 212.908 27.2561 213.141 27.2561C213.387 27.2561 213.628 27.0511 213.719 26.7642C213.804 26.4937 214.057 26.1133 214.28 25.9189C214.503 25.7244 214.686 25.4047 214.686 25.2084C214.686 25.004 214.862 24.8515 215.099 24.8515C215.358 24.8515 215.564 24.647 215.65 24.305C215.731 23.9835 215.944 23.7585 216.168 23.7585C216.378 23.7585 216.734 23.5126 216.96 23.212C217.216 22.8708 217.587 22.6655 217.947 22.6655C218.273 22.6655 218.661 22.4754 218.839 22.2283C219.012 21.9878 219.37 21.7911 219.634 21.7911C219.898 21.7911 220.172 21.6681 220.242 21.5178C220.344 21.2992 220.395 21.2992 220.497 21.5178C220.648 21.8415 221.681 21.8892 221.681 21.5725C221.681 21.4523 221.878 21.3539 222.118 21.3539C222.359 21.3539 222.555 21.4523 222.555 21.5725C222.555 21.6927 222.703 21.7911 222.883 21.7911C223.064 21.7911 223.211 21.6927 223.211 21.5725C223.211 21.4523 223.408 21.3539 223.648 21.3539C223.935 21.3539 224.085 21.4996 224.085 21.7765C224.085 22.1073 224.232 22.1949 224.762 22.1798C225.134 22.1693 225.503 22.2621 225.582 22.3863C225.661 22.5104 226.143 22.6818 226.654 22.7672C227.369 22.8867 227.583 23.0189 227.583 23.3405C227.583 23.6128 227.736 23.7585 228.02 23.7585C228.294 23.7585 228.457 23.9042 228.457 24.1471C228.457 24.5869 229.183 25.2887 229.638 25.2887C229.809 25.2887 230.001 25.6192 230.083 26.0538C230.161 26.4746 230.32 26.8189 230.435 26.8189C230.55 26.8189 230.643 26.9939 230.643 27.2078C230.643 27.4218 230.84 27.7386 231.081 27.9119C231.321 28.0852 231.518 28.443 231.518 28.707C231.518 28.971 231.623 29.222 231.751 29.2646C231.879 29.3073 232.039 29.7581 232.107 30.2665C232.175 30.7749 232.317 31.1909 232.421 31.1909C232.525 31.1909 232.611 31.5352 232.611 31.956C232.611 32.3768 232.709 32.7211 232.829 32.7211C232.95 32.7211 233.048 33.1555 233.048 33.6866C233.048 34.2647 233.158 34.6886 233.321 34.7431C233.535 34.8145 233.611 38.1075 233.671 49.954L233.748 65.0738H228.152H222.555V51.4596V37.8454L222.091 37.5239C221.836 37.347 221.499 37.0794 221.342 36.9291C220.61 36.2287 218.62 36.908 218.62 37.8582C218.62 38.0385 218.522 38.1861 218.402 38.1861C218.274 38.1861 218.183 38.9147 218.183 39.9349C218.183 40.8967 218.092 41.6837 217.98 41.6837C217.657 41.6837 217.709 64.0405 218.033 64.2465C218.229 64.371 218.226 64.4122 218.019 64.4147C217.869 64.4163 217.746 64.5656 217.746 64.7459C217.746 65.0286 216.994 65.0738 212.286 65.0738H206.826L206.766 51.4133L206.707 37.7528L206.115 37.2043C205.102 36.2654 203.1 36.6593 203.1 37.7975C203.1 38.0112 203.002 38.1861 202.881 38.1861C202.761 38.1861 202.663 38.6287 202.663 39.1698C202.663 39.7108 202.564 40.1535 202.444 40.1535C202.301 40.1535 202.225 44.4526 202.225 52.6136V65.0738H196.761H191.296V50.8649Z" fill="white"/>
<path d="M427.602 65.7296C427.602 65.6094 427.356 65.511 427.055 65.511C426.755 65.511 426.509 65.4127 426.509 65.2924C426.509 65.1722 426.214 65.0738 425.853 65.0738C425.492 65.0738 425.197 64.9833 425.197 64.8726C425.197 64.7619 424.878 64.6012 424.487 64.5154C424.096 64.4296 423.617 64.1758 423.423 63.9515C423.228 63.7272 423.005 63.5436 422.926 63.5436C422.664 63.5436 419.514 60.3016 419.514 60.0329C419.514 59.7461 418.686 58.9531 418.387 58.9531C418.285 58.9531 418.202 58.7563 418.202 58.5158C418.202 58.2754 418.104 58.0786 417.983 58.0786C417.863 58.0786 417.765 57.8788 417.765 57.6346C417.765 57.3903 417.617 57.1339 417.437 57.0647C417.25 56.993 417.109 56.667 417.109 56.3065C417.109 55.9586 417.011 55.6741 416.89 55.6741C416.77 55.6741 416.672 55.5265 416.672 55.3462C416.672 55.1658 416.579 55.0182 416.467 55.0182C416.354 55.0182 416.195 54.5756 416.114 54.0346C416.033 53.4935 415.879 53.0508 415.773 53.0508C415.666 53.0508 415.579 52.8107 415.579 52.5173C415.579 52.2238 415.48 51.9229 415.36 51.8486C415.24 51.7742 415.142 51.3258 415.142 50.852C415.142 50.3781 415.043 49.9905 414.923 49.9905C414.803 49.9905 414.704 49.4494 414.704 48.7882C414.704 48.1269 414.606 47.5859 414.486 47.5859C414.349 47.5859 414.267 46.2014 414.267 43.8697C414.267 41.5379 414.349 40.1535 414.486 40.1535C414.606 40.1535 414.704 39.7108 414.704 39.1698C414.704 38.6287 414.803 38.1861 414.923 38.1861C415.043 38.1861 415.142 37.645 415.142 36.9838C415.142 36.3225 415.24 35.7815 415.36 35.7815C415.48 35.7815 415.579 35.5355 415.579 35.235C415.579 34.9344 415.663 34.6885 415.767 34.6885C415.87 34.6885 416.015 34.1866 416.087 33.5731C416.173 32.8447 416.374 32.3239 416.664 32.0719C416.909 31.8597 417.109 31.4763 417.109 31.2199C417.109 30.9635 417.207 30.7537 417.328 30.7537C417.448 30.7537 417.546 30.5538 417.546 30.3096C417.546 30.0654 417.694 29.8089 417.874 29.7397C418.054 29.6705 418.202 29.4277 418.202 29.2001C418.202 28.9725 418.3 28.7863 418.421 28.7863C418.541 28.7863 418.639 28.6502 418.639 28.4839C418.639 28.3176 418.829 28.1317 419.062 28.0709C419.34 27.9982 419.535 27.6903 419.633 27.171C419.741 26.5952 419.893 26.3817 420.194 26.3817C420.421 26.3817 420.607 26.2341 420.607 26.0538C420.607 25.8716 420.801 25.7259 421.044 25.7259C421.335 25.7259 421.481 25.5801 421.481 25.2887C421.481 25.0458 421.627 24.8515 421.809 24.8515C421.989 24.8515 422.137 24.7039 422.137 24.5236C422.137 24.3432 422.327 24.1957 422.559 24.1957C422.792 24.1957 423.044 23.9989 423.12 23.7585C423.197 23.518 423.449 23.3213 423.682 23.3213C423.914 23.3213 424.104 23.2339 424.104 23.127C424.104 23.0202 424.448 22.8682 424.869 22.7892C425.29 22.7103 425.634 22.5518 425.634 22.437C425.634 22.3222 425.831 22.2283 426.072 22.2283C426.312 22.2283 426.509 22.1299 426.509 22.0097C426.509 21.8895 426.853 21.7911 427.274 21.7911C427.695 21.7911 428.039 21.6927 428.039 21.5725C428.039 21.4413 428.913 21.3539 430.225 21.3539C431.537 21.3539 432.411 21.4413 432.411 21.5725C432.411 21.6927 432.799 21.7911 433.272 21.7911C433.746 21.7911 434.195 21.8895 434.269 22.0097C434.343 22.1299 434.644 22.2283 434.938 22.2283C435.231 22.2283 435.471 22.3189 435.471 22.4295C435.471 22.5402 435.791 22.7009 436.182 22.7867C436.572 22.8725 437.051 23.1263 437.246 23.3506C437.44 23.575 437.661 23.7585 437.736 23.7585C438.013 23.7585 438.969 24.7211 438.969 25.0002C438.969 25.1589 439.072 25.2887 439.197 25.2887C439.494 25.2887 440.499 26.2936 440.499 26.5903C440.499 26.716 440.696 26.8189 440.936 26.8189C441.218 26.8189 441.374 26.9646 441.374 27.2293C441.374 27.4551 441.521 27.7622 441.701 27.9119C441.882 28.0616 442.029 28.3195 442.029 28.4852C442.029 28.6508 442.128 28.7863 442.248 28.7863C442.368 28.7863 442.467 28.983 442.467 29.2235C442.467 29.4639 442.553 29.6607 442.66 29.6607C442.848 29.6607 443.135 30.318 443.232 30.9723C443.355 31.8072 443.642 32.2839 444.022 32.2839C444.331 32.2839 444.434 32.4428 444.434 32.9215C444.434 33.2721 444.557 33.6087 444.707 33.6693C444.926 33.7575 444.926 33.783 444.707 33.7968C444.315 33.8216 444.368 34.6885 444.762 34.6885C444.991 34.6885 445.09 34.9192 445.09 35.4536C445.09 35.8744 445.188 36.2187 445.308 36.2187C445.429 36.2187 445.527 36.563 445.527 36.9838C445.527 37.4046 445.625 37.7489 445.746 37.7489C445.878 37.7489 445.964 38.6961 445.964 40.1535C445.964 41.6108 446.05 42.5581 446.183 42.5581C446.304 42.5581 446.401 43.141 446.401 43.8697C446.401 44.5983 446.304 45.1813 446.183 45.1813C446.062 45.1813 445.964 45.378 445.964 45.6185C445.964 46.0483 445.818 46.0557 437.329 46.0557H428.695V42.886C428.695 40.9186 428.778 39.7163 428.913 39.7163C429.034 39.7163 429.132 39.5716 429.132 39.3947C429.132 39.1309 429.653 39.0622 432.028 39.0122L434.925 38.9512L434.991 37.8035C435.031 37.1043 434.967 36.6559 434.827 36.6559C434.7 36.6559 434.597 36.41 434.597 36.1094C434.597 35.8088 434.499 35.5629 434.378 35.5629C434.258 35.5629 434.16 35.3706 434.16 35.1356C434.16 34.5363 433.152 33.5955 432.51 33.5955C432.215 33.5955 431.974 33.4971 431.974 33.3769C431.974 33.2566 431.531 33.1583 430.99 33.1583C430.449 33.1583 430.006 33.2566 430.006 33.3769C430.006 33.4971 429.763 33.5955 429.466 33.5955C428.866 33.5955 426.946 35.3488 426.946 35.8965C426.946 36.0737 426.848 36.2187 426.727 36.2187C426.607 36.2187 426.509 36.4646 426.509 36.7652C426.509 37.0657 426.41 37.3117 426.29 37.3117C426.17 37.3117 426.072 37.7052 426.072 38.1861C426.072 38.667 425.973 39.0605 425.853 39.0605C425.725 39.0605 425.634 39.7891 425.634 40.8093C425.634 41.8294 425.543 42.5581 425.416 42.5581C425.131 42.5581 425.131 43.8029 425.416 43.979C425.536 44.0533 425.634 44.7969 425.634 45.6314C425.634 46.4972 425.728 47.1487 425.853 47.1487C425.973 47.1487 426.072 47.5913 426.072 48.1323C426.072 48.6734 426.17 49.1161 426.29 49.1161C426.41 49.1161 426.509 49.2636 426.509 49.444C426.509 49.6243 426.607 49.7718 426.727 49.7718C426.848 49.7718 426.946 49.9616 426.946 50.1934C426.946 50.4253 427.094 50.7626 427.274 50.9429C427.454 51.1233 427.602 51.3315 427.602 51.4057C427.602 51.729 428.715 52.6136 429.122 52.6136C429.368 52.6136 429.569 52.712 429.569 52.8322C429.569 52.9525 430.11 53.0508 430.771 53.0508C431.433 53.0508 431.974 52.9525 431.974 52.8322C431.974 52.712 432.085 52.6136 432.221 52.6136C432.358 52.6136 432.628 52.4334 432.823 52.213C433.656 51.2687 435.034 51.7047 435.034 52.9126C435.034 53.2291 435.133 53.488 435.253 53.488C435.373 53.488 435.471 53.5934 435.471 53.7223C435.471 53.8511 435.594 54.0936 435.745 54.2612C436.393 54.9845 436.564 55.2318 436.564 55.4462C436.564 55.5715 436.663 55.6741 436.783 55.6741C436.903 55.6741 437.002 55.8474 437.002 56.0594C437.002 56.2713 437.247 56.6294 437.548 56.8551C437.887 57.11 438.095 57.4825 438.095 57.8381C438.095 58.1739 438.275 58.5236 438.532 58.6837C438.772 58.8339 438.969 59.1035 438.969 59.2828C438.969 59.4621 439.056 59.6088 439.163 59.6088C439.27 59.6088 439.421 59.946 439.498 60.358C439.575 60.7701 439.758 61.1469 439.903 61.1953C440.097 61.26 440.08 61.3787 439.841 61.6409C439.662 61.8374 439.389 62.1492 439.234 62.3338C439.079 62.5183 438.759 62.6692 438.523 62.6692C438.287 62.6692 438.095 62.7526 438.095 62.8544C438.095 63.1992 437.28 63.9808 436.921 63.9808C436.725 63.9808 436.564 64.0714 436.564 64.1821C436.564 64.2928 436.245 64.4527 435.854 64.5374C435.463 64.6222 435.094 64.753 435.034 64.8281C434.8 65.1199 433.926 65.511 433.507 65.511C433.265 65.511 433.067 65.6094 433.067 65.7296C433.067 65.8637 432.01 65.9482 430.334 65.9482C428.658 65.9482 427.602 65.8637 427.602 65.7296V65.7296Z" fill="white"/>
</g>
</svg>
